%TF.GenerationSoftware,Altium Limited,Altium Designer,24.6.1 (21)*%
G04 Layer_Physical_Order=2*
G04 Layer_Color=16711680*
%FSLAX45Y45*%
%MOMM*%
%TF.SameCoordinates,4AD75283-6A23-4CB8-A15C-AB691BBDECAE*%
%TF.FilePolarity,Positive*%
%TF.FileFunction,Copper,L2,Bot,Signal*%
%TF.Part,Single*%
G01*
G75*
%TA.AperFunction,Conductor*%
%ADD10C,0.25400*%
%TA.AperFunction,NonConductor*%
%ADD11C,0.25400*%
%TA.AperFunction,ComponentPad*%
%ADD12C,1.53000*%
%ADD13R,1.53000X1.53000*%
%ADD14C,1.52400*%
%ADD15C,1.50800*%
D10*
X982435Y987228D02*
X1477735Y491928D01*
X4761935D01*
X2860306Y6210300D02*
X4034663D01*
X2577535Y5927528D02*
X2860306Y6210300D01*
X4034663D02*
X4292035Y5952928D01*
X3461455D02*
X4038035D01*
X2831535Y5927528D02*
X3461455Y5952928D01*
X736035Y5343328D02*
X1320235Y5927528D01*
X2069535D01*
X2463235Y5813228D02*
X2577535Y5927528D01*
X1459935Y5813228D02*
X2463235D01*
X990035Y5343328D02*
X1459935Y5813228D01*
X1477735Y745928D02*
X4761935D01*
X982435Y1241228D02*
X1477735Y745928D01*
D11*
X5783300Y393700D02*
G03*
X5783300Y393700I-131800J0D01*
G01*
X524935Y6054528D02*
G03*
X524935Y6054528I-131800J0D01*
G01*
X525500Y393700D02*
G03*
X525500Y393700I-131800J0D01*
G01*
X5782735Y6054528D02*
G03*
X5782735Y6054528I-131800J0D01*
G01*
D12*
X736035Y5343328D02*
D03*
X990035D02*
D03*
X1244035D02*
D03*
X1498035D02*
D03*
X1752035D02*
D03*
X2006035D02*
D03*
X2260035D02*
D03*
X2514035D02*
D03*
X2768035D02*
D03*
X3022035D02*
D03*
X3276035D02*
D03*
X3530035D02*
D03*
X3784035D02*
D03*
X4038035D02*
D03*
X4292035D02*
D03*
X4546035D02*
D03*
X5054035D02*
D03*
X5308035D02*
D03*
X4800035D02*
D03*
X5309035Y2993828D02*
D03*
X5055035D02*
D03*
X4801035D02*
D03*
X4547035D02*
D03*
X4293035D02*
D03*
X4039035D02*
D03*
X3785035D02*
D03*
X3531035D02*
D03*
X3277035D02*
D03*
X3023035D02*
D03*
X2769035D02*
D03*
X2515035D02*
D03*
X2261035D02*
D03*
X2007035D02*
D03*
X1753035D02*
D03*
X1499035D02*
D03*
X1245035D02*
D03*
X991035D02*
D03*
D13*
X737035D02*
D03*
D14*
X4292035Y5952928D02*
D03*
X4038035D02*
D03*
X4761935Y491928D02*
D03*
Y745928D02*
D03*
Y999928D02*
D03*
Y1253928D02*
D03*
Y1507928D02*
D03*
Y1761928D02*
D03*
Y2015928D02*
D03*
Y2269928D02*
D03*
D15*
X2831535Y5927528D02*
D03*
X2577535D02*
D03*
X2323535D02*
D03*
X2069535D02*
D03*
X3936435Y2003228D02*
D03*
Y1749228D02*
D03*
Y1495228D02*
D03*
Y1241228D02*
D03*
Y987228D02*
D03*
X982435Y1749228D02*
D03*
Y1495228D02*
D03*
Y1241228D02*
D03*
Y987228D02*
D03*
%TF.MD5,e87a243dfd07e475c14e60353af04550*%
M02*
