%TF.GenerationSoftware,Altium Limited,Altium Designer,24.6.1 (21)*%
G04 Layer_Color=65535*
%FSLAX45Y45*%
%MOMM*%
%TF.SameCoordinates,C87A4CA8-C81E-49FD-A381-63D600C1493B*%
%TF.FilePolarity,Positive*%
%TF.FileFunction,Legend,Top*%
%TF.Part,Single*%
G01*
G75*
%TA.AperFunction,NonConductor*%
%ADD11C,0.25400*%
%ADD16C,0.20000*%
%ADD17C,0.12700*%
G36*
X595415Y1034107D02*
X616693D01*
Y1032334D01*
X618466D01*
Y1030561D01*
X620239D01*
Y1027014D01*
X622012D01*
Y995098D01*
X620239D01*
Y991552D01*
X618466D01*
Y989779D01*
X616693D01*
Y988005D01*
X614920D01*
Y986232D01*
X613146D01*
Y984459D01*
X611373D01*
Y982686D01*
X607827D01*
Y980913D01*
X606054D01*
Y979140D01*
X602508D01*
Y977367D01*
X600734D01*
Y975593D01*
X597188D01*
Y973821D01*
X593642D01*
Y972047D01*
X590096D01*
Y970274D01*
X586549D01*
Y968501D01*
X581230D01*
Y966728D01*
X574137D01*
Y812465D01*
X572364D01*
Y810693D01*
X570591D01*
Y808919D01*
X567045D01*
Y807146D01*
X543994D01*
Y808919D01*
X540448D01*
Y810693D01*
X538675D01*
Y814239D01*
X536902D01*
Y966728D01*
X531582D01*
Y968501D01*
X524490D01*
Y970274D01*
X520944D01*
Y972047D01*
X517397D01*
Y973821D01*
X513851D01*
Y975593D01*
X510305D01*
Y977367D01*
X508532D01*
Y979140D01*
X504985D01*
Y980913D01*
X503212D01*
Y982686D01*
X499666D01*
Y984459D01*
X497893D01*
Y986232D01*
X496120D01*
Y988005D01*
X494347D01*
Y989779D01*
X492573D01*
Y991552D01*
X490800D01*
Y995098D01*
X489027D01*
Y1027014D01*
X490800D01*
Y1030561D01*
X492573D01*
Y1032334D01*
X494347D01*
Y1034107D01*
X593642D01*
X595415D01*
D02*
G37*
G36*
X496120Y1046519D02*
Y1048292D01*
X492573D01*
Y1050065D01*
X490800D01*
Y1051838D01*
X487254D01*
Y1055384D01*
X485481D01*
Y1057157D01*
X483708D01*
Y1060704D01*
X481935D01*
Y1083755D01*
X483708D01*
Y1089074D01*
X485481D01*
Y1090847D01*
X487254D01*
Y1092620D01*
X489027D01*
Y1094393D01*
X490800D01*
Y1096166D01*
X492573D01*
Y1097939D01*
X497893D01*
Y1099713D01*
X604281D01*
Y1097939D01*
X609600D01*
Y1096166D01*
X613146D01*
Y1094393D01*
X614920D01*
Y1092620D01*
X616693D01*
Y1090847D01*
X618466D01*
Y1087301D01*
X620239D01*
Y1083755D01*
X622012D01*
Y1062477D01*
X620239D01*
Y1057157D01*
X618466D01*
Y1055384D01*
X616693D01*
Y1053611D01*
X614920D01*
Y1051838D01*
X613146D01*
Y1050065D01*
X611373D01*
Y1048292D01*
X606054D01*
Y1046519D01*
X497893D01*
X496120D01*
D02*
G37*
G36*
X59930Y1523491D02*
X61703D01*
Y1527037D01*
X63476D01*
Y1528810D01*
X65249D01*
Y1530583D01*
X67022D01*
Y1532356D01*
X68795D01*
Y1534130D01*
X72342D01*
Y1535903D01*
X77661D01*
Y1537676D01*
X157452D01*
Y1218512D01*
X77661D01*
Y1220285D01*
X72342D01*
Y1222059D01*
X68795D01*
Y1223832D01*
X67022D01*
Y1225605D01*
X65249D01*
Y1227378D01*
X63476D01*
Y1229151D01*
X61703D01*
Y1232697D01*
X59930D01*
Y1234470D01*
X58157D01*
Y1239790D01*
X56383D01*
Y1516398D01*
X58157D01*
Y1521718D01*
X59930D01*
Y1523491D01*
D02*
G37*
G36*
X659248Y1222059D02*
Y1207874D01*
X657475D01*
Y1199008D01*
X655702D01*
Y1190142D01*
X653928D01*
Y1184823D01*
X652155D01*
Y1177730D01*
X650382D01*
Y1172411D01*
X648609D01*
Y1167092D01*
X646836D01*
Y1161772D01*
X645063D01*
Y1158226D01*
X643290D01*
Y1152907D01*
X641516D01*
Y1149360D01*
X639743D01*
Y1144041D01*
X637970D01*
Y1140495D01*
X636197D01*
Y1136948D01*
X634424D01*
Y1133402D01*
X632651D01*
Y1129856D01*
X630878D01*
Y1126310D01*
X629104D01*
Y1122763D01*
X627331D01*
Y1119217D01*
X625558D01*
Y1117444D01*
X623785D01*
Y1113898D01*
X622012D01*
Y1112125D01*
X620239D01*
Y1110351D01*
X616693D01*
Y1108578D01*
X492573D01*
Y1110351D01*
X489027D01*
Y1112125D01*
X487254D01*
Y1113898D01*
X485481D01*
Y1117444D01*
X483708D01*
Y1120990D01*
X481935D01*
Y1124536D01*
X480162D01*
Y1128083D01*
X478388D01*
Y1131629D01*
X476615D01*
Y1135175D01*
X474842D01*
Y1138721D01*
X473069D01*
Y1142268D01*
X471296D01*
Y1145814D01*
X469523D01*
Y1149360D01*
X467750D01*
Y1154680D01*
X465976D01*
Y1158226D01*
X464203D01*
Y1163545D01*
X462430D01*
Y1168865D01*
X460657D01*
Y1174184D01*
X458884D01*
Y1179503D01*
X457111D01*
Y1186596D01*
X455338D01*
Y1193688D01*
X453565D01*
Y1200781D01*
X451791D01*
Y1211420D01*
X450018D01*
Y1227378D01*
X448245D01*
Y1300076D01*
X435833D01*
Y1301849D01*
X423421D01*
Y1277026D01*
X421648D01*
Y1273479D01*
X418102D01*
Y1271706D01*
X403917D01*
Y1273479D01*
X395051D01*
Y1275252D01*
X384412D01*
Y1277026D01*
X373774D01*
Y1278799D01*
X361362D01*
Y1280572D01*
X352496D01*
Y1282345D01*
X343631D01*
Y1284118D01*
X336538D01*
Y1285891D01*
X334765D01*
Y1287664D01*
X332992D01*
Y1292984D01*
X331219D01*
Y1317808D01*
X329445D01*
Y1319581D01*
X318807D01*
Y1321354D01*
X308168D01*
Y1323127D01*
X297529D01*
Y1324900D01*
X286890D01*
Y1326673D01*
X276252D01*
Y1328446D01*
X265613D01*
Y1330220D01*
X253201D01*
Y1328446D01*
X249655D01*
Y1326673D01*
X247881D01*
Y1324900D01*
X244335D01*
Y1321354D01*
X242562D01*
Y1319581D01*
X240789D01*
Y1314261D01*
X239016D01*
Y1307169D01*
X237243D01*
Y1298303D01*
X235470D01*
Y1291211D01*
X233696D01*
Y1282345D01*
X231923D01*
Y1275252D01*
X230150D01*
Y1266387D01*
X228377D01*
Y1259294D01*
X226604D01*
Y1252202D01*
X224831D01*
Y1245109D01*
X223058D01*
Y1239790D01*
X221285D01*
Y1234470D01*
X219511D01*
Y1230924D01*
X217738D01*
Y1229151D01*
X215965D01*
Y1227378D01*
X214192D01*
Y1225605D01*
X212419D01*
Y1223832D01*
X210646D01*
Y1222059D01*
X207099D01*
Y1220285D01*
X201780D01*
Y1218512D01*
X189368D01*
Y1537676D01*
X201780D01*
Y1535903D01*
X207099D01*
Y1534130D01*
X210646D01*
Y1532356D01*
X212419D01*
Y1530583D01*
X214192D01*
Y1528810D01*
X215965D01*
Y1527037D01*
X217738D01*
Y1525264D01*
X219511D01*
Y1521718D01*
X221285D01*
Y1518171D01*
X223058D01*
Y1514625D01*
X224831D01*
Y1509306D01*
X226604D01*
Y1505759D01*
X228377D01*
Y1502213D01*
X230150D01*
Y1498667D01*
X231923D01*
Y1496894D01*
X233696D01*
Y1493348D01*
X237243D01*
Y1491574D01*
X239016D01*
Y1489801D01*
X240789D01*
Y1488028D01*
X246108D01*
Y1486255D01*
X249655D01*
Y1484482D01*
X258520D01*
Y1482709D01*
X269159D01*
Y1480936D01*
X278025D01*
Y1479162D01*
X288663D01*
Y1477389D01*
X299302D01*
Y1475616D01*
X309941D01*
Y1473843D01*
X320580D01*
Y1472070D01*
X331219D01*
Y1470297D01*
X341857D01*
Y1468524D01*
X352496D01*
Y1466751D01*
X363135D01*
Y1464978D01*
X370227D01*
X372001D01*
X373774D01*
Y1463204D01*
X386186D01*
Y1461431D01*
X396824D01*
Y1459658D01*
X407463D01*
Y1457885D01*
X418102D01*
Y1456112D01*
X435833D01*
Y1457885D01*
X439380D01*
Y1459658D01*
X441153D01*
Y1461431D01*
X442926D01*
Y1463204D01*
X444699D01*
Y1466751D01*
X446472D01*
Y1470297D01*
X448245D01*
Y1562500D01*
X450018D01*
Y1573138D01*
X451791D01*
Y1576685D01*
X453565D01*
Y1580231D01*
X455338D01*
Y1582004D01*
X457111D01*
Y1585550D01*
X458884D01*
Y1587323D01*
X462430D01*
Y1589097D01*
X464203D01*
Y1590870D01*
X465976D01*
Y1592643D01*
X469523D01*
Y1594416D01*
X474842D01*
Y1596189D01*
X632651D01*
Y1594416D01*
X637970D01*
Y1592643D01*
X641516D01*
Y1590870D01*
X645063D01*
Y1589097D01*
X646836D01*
Y1587323D01*
X648609D01*
Y1585550D01*
X650382D01*
Y1583777D01*
X652155D01*
Y1582004D01*
X653928D01*
Y1580231D01*
X655702D01*
Y1576685D01*
X657475D01*
Y1573138D01*
X659248D01*
Y1567819D01*
X661021D01*
Y1222059D01*
X659248D01*
D02*
G37*
%LPC*%
G36*
X629104Y1190142D02*
Y1564273D01*
X627331D01*
Y1566046D01*
X625558D01*
Y1567819D01*
X614920D01*
Y1566046D01*
X611373D01*
Y1562500D01*
X609600D01*
Y1206100D01*
X510305D01*
Y1204327D01*
X506758D01*
Y1202554D01*
X504985D01*
Y1200781D01*
X503212D01*
Y1191915D01*
X504985D01*
Y1188369D01*
X508532D01*
Y1186596D01*
X625558D01*
Y1188369D01*
X627331D01*
Y1190142D01*
X629104D01*
D02*
G37*
%LPD*%
D11*
X4981599Y2500301D02*
X5081599D01*
X4981599Y2600301D02*
X5381598D01*
Y400300D02*
Y2600301D01*
X4981599Y400300D02*
X5381598D01*
X4981599D02*
Y2600301D01*
X3772422Y5802774D02*
X4521722D01*
X3772422D02*
Y6120274D01*
X4521722D01*
Y5802774D02*
Y6120274D01*
X4813275Y901885D02*
X4660925D01*
Y978060D01*
X4686317Y1003452D01*
X4737100D01*
X4762492Y978060D01*
Y901885D01*
X4813275Y1054236D02*
X4660925D01*
X4711708Y1105019D01*
X4660925Y1155803D01*
X4813275D01*
Y1460504D02*
Y1358937D01*
X4711708Y1460504D01*
X4686317D01*
X4660925Y1435112D01*
Y1384329D01*
X4686317Y1358937D01*
X4813275Y1511288D02*
X4787883D01*
Y1536680D01*
X4813275D01*
Y1511288D01*
X4660925Y1739814D02*
Y1638247D01*
X4737100D01*
X4711708Y1689030D01*
Y1714422D01*
X4737100Y1739814D01*
X4787883D01*
X4813275Y1714422D01*
Y1663639D01*
X4787883Y1638247D01*
X4737100Y1790597D02*
Y1892165D01*
X4813275Y2044515D02*
Y1942948D01*
X4711708Y2044515D01*
X4686317D01*
X4660925Y2019123D01*
Y1968340D01*
X4686317Y1942948D01*
X4280036Y6223025D02*
X4330819D01*
X4305428D01*
Y6375375D01*
X4280036Y6349983D01*
X4406994D02*
X4432386Y6375375D01*
X4483170D01*
X4508562Y6349983D01*
Y6248417D01*
X4483170Y6223025D01*
X4432386D01*
X4406994Y6248417D01*
Y6349983D01*
X4559345Y6223025D02*
Y6375375D01*
Y6273808D02*
X4635521Y6324592D01*
X4559345Y6273808D02*
X4635521Y6223025D01*
X4737088D02*
X4787871D01*
X4813263Y6248417D01*
Y6299200D01*
X4787871Y6324592D01*
X4737088D01*
X4711696Y6299200D01*
Y6248417D01*
X4737088Y6223025D01*
X4864047Y6375375D02*
Y6223025D01*
Y6299200D01*
X4889439Y6324592D01*
X4940222D01*
X4965614Y6299200D01*
Y6223025D01*
X5016397D02*
Y6324592D01*
X5041789D01*
X5067181Y6299200D01*
Y6223025D01*
Y6299200D01*
X5092573Y6324592D01*
X5117965Y6299200D01*
Y6223025D01*
X889283Y6388075D02*
X990851D01*
X940067D01*
Y6235725D01*
X1143201Y6388075D02*
X1041634D01*
Y6235725D01*
X1143201D01*
X1041634Y6311900D02*
X1092418D01*
X1193985Y6235725D02*
Y6388075D01*
X1244768Y6337292D01*
X1295552Y6388075D01*
Y6235725D01*
X1346336D02*
Y6388075D01*
X1422511D01*
X1447903Y6362683D01*
Y6311900D01*
X1422511Y6286508D01*
X1346336D01*
X1600254Y6235725D02*
X1574862Y6261117D01*
X1549470Y6235725D01*
X1524078D01*
X1498686Y6261117D01*
Y6286508D01*
X1524078Y6311900D01*
X1498686Y6337292D01*
Y6362683D01*
X1524078Y6388075D01*
X1549470D01*
X1574862Y6362683D01*
Y6337292D01*
X1549470Y6311900D01*
X1574862Y6286508D01*
Y6261117D01*
X1600254Y6311900D02*
X1574862Y6286508D01*
X1524078Y6311900D02*
X1549470D01*
X1651037Y6388075D02*
Y6235725D01*
Y6311900D01*
X1752604D01*
Y6388075D01*
Y6235725D01*
X1803388Y6388075D02*
Y6261117D01*
X1828780Y6235725D01*
X1879563D01*
X1904955Y6261117D01*
Y6388075D01*
X1955739Y6235725D02*
Y6388075D01*
X2006522Y6337292D01*
X2057306Y6388075D01*
Y6235725D01*
X2108089Y6388075D02*
X2158873D01*
X2133481D01*
Y6235725D01*
X2108089D01*
X2158873D01*
X2235048Y6388075D02*
Y6235725D01*
X2311223D01*
X2336615Y6261117D01*
Y6362683D01*
X2311223Y6388075D01*
X2235048D01*
X2387399Y6311900D02*
X2488966D01*
X2641317Y6235725D02*
X2539750D01*
X2641317Y6337292D01*
Y6362683D01*
X2615925Y6388075D01*
X2565141D01*
X2539750Y6362683D01*
X977302Y2696607D02*
X951910Y2721999D01*
X901127D01*
X875735Y2696607D01*
Y2595040D01*
X901127Y2569648D01*
X951910D01*
X977302Y2595040D01*
X1104261Y2721999D02*
X1053477D01*
X1028086Y2696607D01*
Y2595040D01*
X1053477Y2569648D01*
X1104261D01*
X1129653Y2595040D01*
Y2696607D01*
X1104261Y2721999D01*
X1180436Y2645824D02*
X1282004D01*
X1434354Y2569648D02*
X1332787D01*
X1434354Y2671216D01*
Y2696607D01*
X1408962Y2721999D01*
X1358179D01*
X1332787Y2696607D01*
X581095Y5800479D02*
Y5673520D01*
X606487Y5648128D01*
X657270D01*
X682662Y5673520D01*
Y5800479D01*
X835013Y5648128D02*
X733446D01*
X835013Y5749696D01*
Y5775087D01*
X809621Y5800479D01*
X758837D01*
X733446Y5775087D01*
X393634Y5537200D02*
Y5435633D01*
Y5486417D01*
X241283D01*
Y5308674D02*
Y5359457D01*
X266675Y5384849D01*
X317459D01*
X342851Y5359457D01*
Y5308674D01*
X317459Y5283282D01*
X292067D01*
Y5384849D01*
X342851Y5207107D02*
Y5156323D01*
X317459Y5130931D01*
X241283D01*
Y5207107D01*
X266675Y5232499D01*
X292067Y5207107D01*
Y5130931D01*
X241283Y5080148D02*
X342851D01*
Y5054756D01*
X317459Y5029364D01*
X241283D01*
X317459D01*
X342851Y5003972D01*
X317459Y4978581D01*
X241283D01*
X393634Y4673879D02*
Y4775446D01*
X317459D01*
X342851Y4724663D01*
Y4699271D01*
X317459Y4673879D01*
X266675D01*
X241283Y4699271D01*
Y4750055D01*
X266675Y4775446D01*
X241283Y4470745D02*
X342851D01*
X393634Y4419961D01*
X342851Y4369178D01*
X241283D01*
X317459D01*
Y4470745D01*
X241283Y4318394D02*
Y4267611D01*
Y4293002D01*
X342851D01*
Y4318394D01*
Y4191435D02*
X241283D01*
X292067D01*
X317459Y4166043D01*
X342851Y4140652D01*
Y4115260D01*
X266675Y3785167D02*
X368242D01*
X393634Y3810559D01*
Y3861342D01*
X368242Y3886734D01*
X266675D01*
X241283Y3861342D01*
Y3810559D01*
X292067Y3835950D02*
X241283Y3785167D01*
Y3810559D02*
X266675Y3785167D01*
X342851Y3734383D02*
X266675D01*
X241283Y3708991D01*
Y3632816D01*
X342851D01*
Y3556641D02*
Y3505857D01*
X317459Y3480465D01*
X241283D01*
Y3556641D01*
X266675Y3582032D01*
X292067Y3556641D01*
Y3480465D01*
X241283Y3429682D02*
Y3378898D01*
Y3404290D01*
X393634D01*
Y3429682D01*
X241283Y3302723D02*
Y3251939D01*
Y3277331D01*
X342851D01*
Y3302723D01*
X368242Y3150372D02*
X342851D01*
Y3175764D01*
Y3124981D01*
Y3150372D01*
X266675D01*
X241283Y3124981D01*
X342851Y3048805D02*
X266675D01*
X241283Y3023413D01*
Y2947238D01*
X215892D01*
X190500Y2972630D01*
Y2998022D01*
X241283Y2947238D02*
X342851D01*
X241283Y2744104D02*
X393634D01*
X342851Y2693320D01*
X393634Y2642536D01*
X241283D01*
Y2566361D02*
Y2515578D01*
X266675Y2490186D01*
X317459D01*
X342851Y2515578D01*
Y2566361D01*
X317459Y2591753D01*
X266675D01*
X241283Y2566361D01*
Y2439402D02*
X342851D01*
Y2363227D01*
X317459Y2337835D01*
X241283D01*
Y2287052D02*
Y2236268D01*
Y2261660D01*
X342851D01*
Y2287052D01*
X368242Y2134701D02*
X342851D01*
Y2160093D01*
Y2109309D01*
Y2134701D01*
X266675D01*
X241283Y2109309D01*
Y2007742D02*
Y1956958D01*
X266675Y1931567D01*
X317459D01*
X342851Y1956958D01*
Y2007742D01*
X317459Y2033134D01*
X266675D01*
X241283Y2007742D01*
X342851Y1880783D02*
X241283D01*
X292067D01*
X317459Y1855391D01*
X342851Y1830000D01*
Y1804608D01*
D16*
X733335Y2752528D02*
G03*
X733335Y2752528I-10000J0D01*
G01*
D17*
X570935Y2841428D02*
Y5559228D01*
X5495533Y2841428D02*
Y3856829D01*
X570935Y2841428D02*
X5495533D01*
Y4669827D02*
Y5559228D01*
Y3856829D02*
Y4669827D01*
X570935Y5559228D02*
X5495533D01*
X3050534Y5702530D02*
Y6152527D01*
X1850536Y5702530D02*
X3050534D01*
X1850536D02*
Y6152527D01*
X3050534D01*
X3000536Y5877531D02*
Y5977531D01*
X3025535Y5952527D01*
X3000536Y5977531D02*
X3025535Y5952527D01*
X2975533D02*
X3000536Y5977531D01*
X1182435Y487229D02*
X3782435D01*
Y2487230D01*
X1182435D02*
X3782435D01*
X1182435Y487229D02*
Y2487230D01*
%TF.MD5,fe17d129b5aa1d03412dde2f33d3e373*%
M02*
