%TF.GenerationSoftware,Altium Limited,Altium Designer,24.6.1 (21)*%
G04 Layer_Color=0*
%FSLAX45Y45*%
%MOMM*%
%TF.SameCoordinates,C87A4CA8-C81E-49FD-A381-63D600C1493B*%
%TF.FilePolarity,Positive*%
%TF.FileFunction,Plated,1,2,PTH,Drill*%
%TF.Part,Single*%
G01*
G75*
%TA.AperFunction,ComponentDrill*%
%ADD23C,0.76200*%
%ADD24C,1.02000*%
%ADD25C,1.00000*%
D23*
X5181599Y622302D02*
D03*
Y876302D02*
D03*
Y1130302D02*
D03*
Y1384302D02*
D03*
Y1638302D02*
D03*
Y1892302D02*
D03*
Y2146302D02*
D03*
Y2400302D02*
D03*
X4292035Y5952928D02*
D03*
X4038035D02*
D03*
D24*
X736035Y5343328D02*
D03*
X990035D02*
D03*
X1244035D02*
D03*
X1498035D02*
D03*
X1752035D02*
D03*
X2006035D02*
D03*
X2260035D02*
D03*
X2514035D02*
D03*
X2768035D02*
D03*
X3022035D02*
D03*
X3276035D02*
D03*
X3530035D02*
D03*
X3784035D02*
D03*
X4038035D02*
D03*
X4292035D02*
D03*
X4546035D02*
D03*
X5054035D02*
D03*
X5308035D02*
D03*
X4800035D02*
D03*
X5309036Y2993828D02*
D03*
X5055036D02*
D03*
X4801036D02*
D03*
X4547036D02*
D03*
X4293036D02*
D03*
X4039036D02*
D03*
X3785036D02*
D03*
X3531036D02*
D03*
X3277036D02*
D03*
X3023036D02*
D03*
X2769036D02*
D03*
X2515036D02*
D03*
X2261036D02*
D03*
X2007036D02*
D03*
X1753036D02*
D03*
X1499036D02*
D03*
X1245036D02*
D03*
X991036D02*
D03*
X737036D02*
D03*
D25*
X2831535Y5927528D02*
D03*
X2577535D02*
D03*
X2323535D02*
D03*
X2069535D02*
D03*
X3936435Y2003228D02*
D03*
Y1749228D02*
D03*
Y1495228D02*
D03*
Y1241228D02*
D03*
Y987228D02*
D03*
X982435Y1749228D02*
D03*
Y1495228D02*
D03*
Y1241228D02*
D03*
Y987228D02*
D03*
%TF.MD5,ef4fb40f096bd64d3f82647430f5624b*%
M02*
