%TF.GenerationSoftware,Altium Limited,Altium Designer,24.6.1 (21)*%
G04 Layer_Color=0*
%FSLAX45Y45*%
%MOMM*%
%TF.SameCoordinates,C87A4CA8-C81E-49FD-A381-63D600C1493B*%
%TF.FilePolarity,Positive*%
%TF.FileFunction,Profile,NP*%
%TF.Part,Single*%
G01*
G75*
%TA.AperFunction,Profile*%
%ADD22C,0.02540*%
G36*
X5519700Y393700D02*
Y380719D01*
X5524765Y355255D01*
X5534700Y331269D01*
X5549124Y309682D01*
X5567482Y291324D01*
X5589069Y276900D01*
X5613055Y266965D01*
X5638519Y261900D01*
X5651500D01*
X5664481D01*
X5689944Y266965D01*
X5713931Y276900D01*
X5735518Y291324D01*
X5753876Y309682D01*
X5768300Y331269D01*
X5778235Y355255D01*
X5783300Y380719D01*
Y393700D01*
Y406681D01*
X5778235Y432144D01*
X5768300Y456131D01*
X5753876Y477718D01*
X5735518Y496076D01*
X5713931Y510500D01*
X5689944Y520435D01*
X5664481Y525500D01*
X5651500D01*
X5638519D01*
X5613055Y520435D01*
X5589069Y510500D01*
X5567482Y496076D01*
X5549124Y477718D01*
X5534700Y456131D01*
X5524765Y432144D01*
X5519700Y406681D01*
Y393700D01*
D01*
D02*
G37*
G36*
X393700Y261900D02*
X380719D01*
X355255Y266965D01*
X331269Y276900D01*
X309682Y291324D01*
X291324Y309682D01*
X276900Y331269D01*
X266965Y355255D01*
X261900Y380719D01*
Y393700D01*
Y406681D01*
X266965Y432144D01*
X276900Y456131D01*
X291324Y477718D01*
X309682Y496076D01*
X331269Y510500D01*
X355255Y520435D01*
X380719Y525500D01*
X393700D01*
X406681D01*
X432144Y520435D01*
X456131Y510500D01*
X477718Y496076D01*
X496076Y477718D01*
X510500Y456131D01*
X520435Y432144D01*
X525500Y406681D01*
Y393700D01*
Y380719D01*
X520435Y355255D01*
X510500Y331269D01*
X496076Y309682D01*
X477718Y291324D01*
X456131Y276900D01*
X432144Y266965D01*
X406681Y261900D01*
X393700D01*
D01*
D02*
G37*
G36*
X5519700Y393700D02*
Y380719D01*
X5524765Y355255D01*
X5534700Y331269D01*
X5549124Y309682D01*
X5567482Y291324D01*
X5589069Y276900D01*
X5613055Y266965D01*
X5638519Y261900D01*
X5651500D01*
X5664481D01*
X5689944Y266965D01*
X5713931Y276900D01*
X5735518Y291324D01*
X5753876Y309682D01*
X5768300Y331269D01*
X5778235Y355255D01*
X5783300Y380719D01*
Y393700D01*
Y406681D01*
X5778235Y432144D01*
X5768300Y456131D01*
X5753876Y477718D01*
X5735518Y496076D01*
X5713931Y510500D01*
X5689944Y520435D01*
X5664481Y525500D01*
X5651500D01*
X5638519D01*
X5613055Y520435D01*
X5589069Y510500D01*
X5567482Y496076D01*
X5549124Y477718D01*
X5534700Y456131D01*
X5524765Y432144D01*
X5519700Y406681D01*
Y393700D01*
D01*
D02*
G37*
G36*
X393700Y261900D02*
X380719D01*
X355255Y266965D01*
X331269Y276900D01*
X309682Y291324D01*
X291324Y309682D01*
X276900Y331269D01*
X266965Y355255D01*
X261900Y380719D01*
Y393700D01*
Y406681D01*
X266965Y432144D01*
X276900Y456131D01*
X291324Y477718D01*
X309682Y496076D01*
X331269Y510500D01*
X355255Y520435D01*
X380719Y525500D01*
X393700D01*
X406681D01*
X432144Y520435D01*
X456131Y510500D01*
X477718Y496076D01*
X496076Y477718D01*
X510500Y456131D01*
X520435Y432144D01*
X525500Y406681D01*
Y393700D01*
Y380719D01*
X520435Y355255D01*
X510500Y331269D01*
X496076Y309682D01*
X477718Y291324D01*
X456131Y276900D01*
X432144Y266965D01*
X406681Y261900D01*
X393700D01*
D01*
D02*
G37*
G36*
X5650935Y5922728D02*
X5637954D01*
X5612490Y5927793D01*
X5588504Y5937729D01*
X5566917Y5952152D01*
X5548559Y5970511D01*
X5534135Y5992097D01*
X5524200Y6016084D01*
X5519135Y6041547D01*
Y6054528D01*
Y6067509D01*
X5524200Y6092973D01*
X5534135Y6116959D01*
X5548559Y6138546D01*
X5566917Y6156904D01*
X5588504Y6171328D01*
X5612490Y6181263D01*
X5637954Y6186328D01*
X5650935D01*
X5663916D01*
X5689379Y6181263D01*
X5713366Y6171328D01*
X5734952Y6156904D01*
X5753311Y6138546D01*
X5767734Y6116959D01*
X5777670Y6092973D01*
X5782735Y6067509D01*
Y6054528D01*
Y6041547D01*
X5777670Y6016084D01*
X5767734Y5992097D01*
X5753311Y5970511D01*
X5734952Y5952152D01*
X5713366Y5937729D01*
X5689379Y5927793D01*
X5663916Y5922728D01*
X5650935D01*
D01*
D02*
G37*
G36*
X393135D02*
X380154D01*
X354690Y5927793D01*
X330704Y5937729D01*
X309117Y5952152D01*
X290759Y5970511D01*
X276335Y5992097D01*
X266400Y6016084D01*
X261335Y6041547D01*
Y6054528D01*
Y6067509D01*
X266400Y6092973D01*
X276335Y6116959D01*
X290759Y6138546D01*
X309117Y6156904D01*
X330704Y6171328D01*
X354690Y6181263D01*
X380154Y6186328D01*
X393135D01*
X406116D01*
X431579Y6181263D01*
X455566Y6171328D01*
X477152Y6156904D01*
X495511Y6138546D01*
X509934Y6116959D01*
X519870Y6092973D01*
X524935Y6067509D01*
Y6054528D01*
Y6041547D01*
X519870Y6016084D01*
X509934Y5992097D01*
X495511Y5970511D01*
X477152Y5952152D01*
X455566Y5937729D01*
X431579Y5927793D01*
X406116Y5922728D01*
X393135D01*
D01*
D02*
G37*
D22*
X-565Y256D02*
X6044635D01*
Y6448228D01*
X-565D01*
Y256D01*
%TF.MD5,bcc1d133f1d5c37477d1e338e3eae724*%
M02*
